<svg width="40" height="40" viewBox="0 0 40 40" fill="none" xmlns="http://www.w3.org/2000/svg">
<rect x="0.5" y="0.5" width="39" height="39" rx="3.5" fill="white" stroke="#2062AF"/>
<path d="M28.1248 33.1695L19.9999 35.3572L11.8749 33.1695L10 12.8572H30L28.1248 33.1695Z" fill="#2062AF"/>
<path d="M19.9999 14.5024V33.6123L20.0182 33.6173L26.5934 31.8468L28.1111 14.5024H19.9999Z" fill="#1682C5"/>
<path d="M14.1774 22.0032L19.9926 22.0234V19.5813L14.1774 22.0032Z" fill="#EBEBEB"/>
<path d="M20.3242 19.4401L19.9927 19.5813V21.9971L25.9735 19.4401H20.3242Z" fill="#F9F8F8"/>
<path d="M23.0059 24.4287L22.8129 27.6258L19.9742 28.425L20.0018 31.0984L25.1006 29.61L25.7621 22.0033H19.9741V24.419L23.0059 24.4287Z" fill="#FAFAF9"/>
<path d="M14.3798 24.4012L14.1862 22.0033H19.9727V24.4219L14.3798 24.4012Z" fill="#EBEBEB"/>
<path d="M17.2568 27.736L19.9958 28.425L20.0234 31.0984L14.8777 29.5825L14.5457 25.7515H17.0908L17.2568 27.736Z" fill="#EBEBEB"/>
<g opacity="0.05">
<path opacity="0.05" d="M8.81527 21H3L3.19285 23.3979L8.81527 23.4158V21ZM8.81527 27.414L8.78771 27.4217L6.0592 26.7327L5.89385 24.7483H3.35832L3.68902 28.5793L8.81527 30.0951V27.414Z" fill="black"/>
</g>
<path d="M26.2214 16.9872L25.9735 19.4401H19.9982V16.9872H26.2214Z" fill="#F9F8F8"/>
<path d="M13.9568 19.44L13.6537 16.9871H19.9982V19.44H13.9568Z" fill="#EBEBEB"/>
<path d="M17.7547 4.68207V5.67299C17.2457 5.26561 16.6839 5.06192 16.0694 5.06192C15.399 5.06192 14.8527 5.26011 14.4306 5.65647C14.0147 6.04734 13.8068 6.5483 13.8068 7.15936C13.8068 7.74841 14.021 8.24111 14.4493 8.63748C14.8776 9.02834 15.4207 9.22377 16.0787 9.22377C16.6933 9.22377 17.2519 9.01183 17.7547 8.58793V9.58711C17.2333 9.86236 16.6653 9.99999 16.0508 9.99999C15.1879 9.99999 14.4555 9.74676 13.8533 9.24029C13.1892 8.68978 12.8571 7.99614 12.8571 7.15936C12.8571 6.27855 13.1892 5.56013 13.8533 5.00412C14.4244 4.52518 15.1724 4.28571 16.0973 4.28571C16.7367 4.28571 17.2892 4.41783 17.7547 4.68207Z" fill="#2062AF"/>
<path d="M22.3741 5.21056L21.6106 5.60693C21.5486 5.47481 21.4554 5.3592 21.3313 5.26011C21.1451 5.12798 20.9216 5.06192 20.6609 5.06192C20.3816 5.06192 20.1643 5.12523 20.0091 5.25185C19.8601 5.37847 19.7856 5.53536 19.7856 5.72253C19.7856 6.0088 20.0091 6.23176 20.456 6.3914L21.0799 6.61436C22.0545 6.96669 22.5417 7.50618 22.5417 8.23286C22.5417 8.75584 22.3524 9.18249 21.9738 9.51279C21.6013 9.83759 21.1233 9.99999 20.5399 9.99999C19.9377 9.99999 19.4504 9.81557 19.078 9.44673C18.7738 9.14395 18.6 8.78612 18.5566 8.37324L19.497 8.19157C19.497 8.45581 19.5839 8.68978 19.7577 8.89347C19.9564 9.11367 20.2264 9.22377 20.5678 9.22377C20.8595 9.22377 21.1016 9.13844 21.2941 8.96779C21.4927 8.79713 21.592 8.57417 21.592 8.29892C21.592 8.04568 21.5082 7.85025 21.3406 7.71263C21.1792 7.575 20.9651 7.45664 20.6981 7.35755L20.1022 7.13459C19.258 6.8208 18.8359 6.35562 18.8359 5.73905C18.8359 5.34268 18.9973 5.00137 19.3201 4.7151C19.6491 4.42884 20.0929 4.28571 20.6516 4.28571C21.1544 4.28571 21.5703 4.40957 21.8993 4.6573C22.0917 4.81144 22.25 4.99586 22.3741 5.21056Z" fill="#2062AF"/>
<path d="M26.9752 5.21056L26.2117 5.60693C26.1496 5.47481 26.0565 5.3592 25.9323 5.26011C25.7461 5.12798 25.5226 5.06192 25.2619 5.06192C24.9826 5.06192 24.7653 5.12523 24.6101 5.25185C24.4612 5.37847 24.3867 5.53536 24.3867 5.72253C24.3867 6.0088 24.6101 6.23176 25.0571 6.3914L25.6809 6.61436C26.6555 6.96669 27.1428 7.50618 27.1428 8.23286C27.1428 8.75584 26.9534 9.18249 26.5748 9.51279C26.2023 9.83759 25.7244 9.99999 25.1409 9.99999C24.5387 9.99999 24.0515 9.81557 23.679 9.44673C23.3749 9.14395 23.201 8.78612 23.1576 8.37324L24.098 8.19157C24.098 8.45581 24.1849 8.68978 24.3587 8.89347C24.5574 9.11367 24.8274 9.22377 25.1688 9.22377C25.4606 9.22377 25.7026 9.13844 25.8951 8.96779C26.0937 8.79713 26.193 8.57417 26.193 8.29892C26.193 8.04568 26.1092 7.85025 25.9416 7.71263C25.7802 7.575 25.5661 7.45664 25.2992 7.35755L24.7032 7.13459C23.859 6.8208 23.4369 6.35562 23.4369 5.73905C23.4369 5.34268 23.5983 5.00137 23.9211 4.7151C24.2501 4.42884 24.6939 4.28571 25.2526 4.28571C25.7554 4.28571 26.1713 4.40957 26.5003 4.6573C26.6927 4.81144 26.851 4.99586 26.9752 5.21056Z" fill="#2062AF"/>
</svg>
