<svg width="40" height="40" viewBox="0 0 40 40" fill="none" xmlns="http://www.w3.org/2000/svg">
<rect x="0.5" y="0.5" width="39" height="39" rx="3.5" fill="white" stroke="#EEAB00"/>
<path d="M11.8565 33.2867L10 12.8572L30 12.865L28.1591 33.2711L19.9844 35.5792L11.8565 33.2867ZM26.6537 32.1717L28.2059 14.674H20.0156L20.078 33.9729L26.6537 32.1717ZM19.2512 17.2394H17.2621L17.2387 27.7115L13.3775 26.6588L13.3853 29.0527L19.2512 30.6356V17.2394Z" fill="#EEAB00"/>
<path d="M20.0156 14.6662H28.2059L26.6537 32.1639L20.0156 33.9651V14.6662ZM26.2325 29.232L26.7707 22.6899L22.7925 23.1343V19.641L27.0359 19.6254L27.2075 17.2394L20.8035 17.2706L20.8893 25.957L24.7582 25.2942L24.7036 27.228L20.8035 28.2651L20.8425 30.6356L26.2325 29.232Z" fill="#F7BE2C"/>
<path d="M7.08185 5.78981H7.78632V8.5085C7.78632 8.93645 7.72877 9.25531 7.61366 9.46508C7.39265 9.86785 7.0312 10.0692 6.52933 10.0692C6.22544 10.0692 5.95378 9.99791 5.71436 9.85526L6.05968 9.31404C6.18861 9.41474 6.34976 9.46508 6.54314 9.46508C6.76876 9.46508 6.923 9.37068 7.00588 9.18188C7.05653 9.06441 7.08185 8.83995 7.08185 8.5085V5.78981Z" fill="#EEAB00"/>
<path d="M10.8964 7.64633V7.33796H11.5732V9.98742H10.8964V9.71052C10.6708 9.94966 10.3807 10.0692 10.0261 10.0692C9.59794 10.0692 9.25492 9.93078 8.99707 9.65388C8.74383 9.37698 8.61721 9.04553 8.61721 8.65954C8.61721 8.23999 8.75304 7.90435 9.0247 7.65262C9.30096 7.39669 9.63708 7.26873 10.0331 7.26873C10.3968 7.26873 10.6846 7.3946 10.8964 7.64633ZM10.1159 7.82254C9.8765 7.82254 9.68082 7.90435 9.52888 8.06798C9.38154 8.2316 9.30787 8.43299 9.30787 8.67213C9.30787 8.90708 9.38154 9.10636 9.52888 9.26999C9.68082 9.43361 9.8765 9.51543 10.1159 9.51543C10.3462 9.51543 10.5395 9.44201 10.6961 9.29516C10.8572 9.14832 10.9378 8.94274 10.9378 8.67842C10.9378 8.40571 10.8572 8.19594 10.6961 8.0491C10.5395 7.89806 10.3462 7.82254 10.1159 7.82254Z" fill="#EEAB00"/>
<path d="M12.0447 7.33796H12.8045L13.5504 8.84834L14.2963 7.33796H15.056L13.5504 10.1762L12.0447 7.33796Z" fill="#EEAB00"/>
<path d="M17.5871 7.64633V7.33796H18.2639V9.98742H17.5871V9.71052C17.3615 9.94966 17.0714 10.0692 16.7169 10.0692C16.2887 10.0692 15.9456 9.93078 15.6878 9.65388C15.4346 9.37698 15.3079 9.04553 15.3079 8.65954C15.3079 8.23999 15.4438 7.90435 15.7154 7.65262C15.9917 7.39669 16.3278 7.26873 16.7238 7.26873C17.0875 7.26873 17.3753 7.3946 17.5871 7.64633ZM16.8067 7.82254C16.5672 7.82254 16.3715 7.90435 16.2196 8.06798C16.0723 8.2316 15.9986 8.43299 15.9986 8.67213C15.9986 8.90708 16.0723 9.10636 16.2196 9.26999C16.3715 9.43361 16.5672 9.51543 16.8067 9.51543C17.0369 9.51543 17.2303 9.44201 17.3868 9.29516C17.548 9.14832 17.6285 8.94274 17.6285 8.67842C17.6285 8.40571 17.548 8.19594 17.3868 8.0491C17.2303 7.89806 17.0369 7.82254 16.8067 7.82254Z" fill="#EEAB00"/>
<path d="M21.802 6.41914L21.2356 6.72122C21.1896 6.62052 21.1205 6.53242 21.0284 6.4569C20.8903 6.35621 20.7246 6.30586 20.5312 6.30586C20.324 6.30586 20.1628 6.35411 20.0477 6.45061C19.9372 6.5471 19.882 6.66668 19.882 6.80932C19.882 7.02749 20.0477 7.19741 20.3792 7.31908L20.842 7.489C21.5649 7.75751 21.9263 8.16867 21.9263 8.72248C21.9263 9.12105 21.7859 9.4462 21.505 9.69793C21.2287 9.94547 20.8742 10.0692 20.4414 10.0692C19.9948 10.0692 19.6333 9.92869 19.3571 9.64759C19.1314 9.41683 19.0025 9.14412 18.9703 8.82946L19.6679 8.69101C19.6679 8.89239 19.7323 9.0707 19.8612 9.22594C20.0086 9.39376 20.2089 9.47767 20.4621 9.47767C20.6785 9.47767 20.8581 9.41264 21.0008 9.28258C21.1482 9.15252 21.2218 8.9826 21.2218 8.77282C21.2218 8.57983 21.1597 8.43089 21.0353 8.326C20.9156 8.22111 20.7568 8.13091 20.5588 8.05539L20.1168 7.88547C19.4906 7.64633 19.1775 7.29181 19.1775 6.82191C19.1775 6.51983 19.2972 6.25971 19.5366 6.04154C19.7807 5.82338 20.1099 5.71429 20.5243 5.71429C20.8972 5.71429 21.2057 5.80869 21.4497 5.99749C21.5925 6.11497 21.7099 6.25552 21.802 6.41914Z" fill="#EEAB00"/>
<path d="M24.935 7.45753V8.14979C24.6909 7.93162 24.417 7.82254 24.1131 7.82254C23.8552 7.82254 23.6411 7.90016 23.4708 8.05539C23.305 8.20643 23.2221 8.40991 23.2221 8.66584C23.2221 8.93015 23.3096 9.14203 23.4846 9.30146C23.6503 9.4441 23.8552 9.51543 24.0993 9.51543C24.4354 9.51543 24.7139 9.40215 24.935 9.17559V9.86156C24.6909 10 24.3962 10.0692 24.0509 10.0692C23.5859 10.0692 23.2175 9.93917 22.9459 9.67905C22.6696 9.41893 22.5315 9.08749 22.5315 8.68472C22.5315 8.26936 22.6788 7.92743 22.9735 7.65891C23.259 7.39879 23.648 7.26873 24.1407 7.26873C24.4216 7.26873 24.6863 7.33166 24.935 7.45753Z" fill="#EEAB00"/>
<path d="M25.5836 9.98742V7.33796H26.2605V7.5771C26.348 7.4848 26.4424 7.41138 26.5436 7.35684C26.6542 7.2981 26.7923 7.26873 26.958 7.26873C27.156 7.26873 27.3333 7.31069 27.4898 7.3946L27.2136 7.9547C27.1031 7.89176 26.988 7.8603 26.8683 7.8603C26.6887 7.8603 26.5483 7.90855 26.447 8.00504C26.3226 8.12671 26.2605 8.3302 26.2605 8.61549V9.98742H25.5836Z" fill="#EEAB00"/>
<path d="M27.8768 7.33796H28.5537V9.98742H27.8768V7.33796ZM27.9045 6.52613C27.8216 6.45061 27.7801 6.35621 27.7801 6.24293C27.7801 6.12965 27.8216 6.03525 27.9045 5.95973C27.9873 5.88421 28.0909 5.84645 28.2152 5.84645C28.3396 5.84645 28.4432 5.88421 28.526 5.95973C28.6089 6.03525 28.6504 6.12965 28.6504 6.24293C28.6504 6.35621 28.6089 6.45061 28.526 6.52613C28.4432 6.60165 28.3396 6.6394 28.2152 6.6394C28.0909 6.6394 27.9873 6.60165 27.9045 6.52613Z" fill="#EEAB00"/>
<path d="M30.0847 9.67905V11.4286H29.4079V7.33796H30.0847V7.62745C30.3057 7.3883 30.5935 7.26873 30.948 7.26873C31.344 7.26873 31.6778 7.39669 31.9495 7.65262C32.2257 7.90435 32.3639 8.2358 32.3639 8.64696C32.3639 9.0707 32.2211 9.41474 31.9357 9.67905C31.6502 9.93917 31.3233 10.0692 30.9549 10.0692C30.6096 10.0692 30.3195 9.93917 30.0847 9.67905ZM30.8652 7.82254C30.6349 7.82254 30.4392 7.89806 30.2781 8.0491C30.1215 8.19594 30.0433 8.40571 30.0433 8.67842C30.0433 8.94274 30.1215 9.14832 30.2781 9.29516C30.4392 9.44201 30.6349 9.51543 30.8652 9.51543C31.1046 9.51543 31.298 9.43361 31.4453 9.26999C31.5972 9.10636 31.6732 8.90708 31.6732 8.67213C31.6732 8.43299 31.5972 8.2316 31.4453 8.06798C31.298 7.90435 31.1046 7.82254 30.8652 7.82254Z" fill="#EEAB00"/>
<path d="M34.2858 7.90435H33.7678V9.98742H33.0909V7.90435H32.8078V7.33796H33.0909V6.36879H33.7678V7.33796H34.2858V7.90435Z" fill="#EEAB00"/>
</svg>
